<svg width="15" height="13" viewBox="0 0 15 13" fill="none" xmlns="http://www.w3.org/2000/svg">
<path d="M7.50341 2.73684C9.38608 2.73684 10.9141 4.26947 10.9141 6.15789C10.9141 6.60263 10.8254 7.02 10.6685 7.41L12.6603 9.40789C13.6903 8.54579 14.502 7.43053 15 6.15789C13.8199 3.15421 10.9072 1.02632 7.49659 1.02632C6.54161 1.02632 5.62756 1.19737 4.78172 1.50526L6.25512 2.98316C6.64393 2.82579 7.06003 2.73684 7.50341 2.73684ZM0.682128 0.868947L2.23738 2.42895L2.55116 2.74368C1.41883 3.62632 0.53206 4.80316 0 6.15789C1.18008 9.16158 4.09277 11.2895 7.50341 11.2895C8.56071 11.2895 9.57026 11.0842 10.4911 10.7147L10.7776 11.0021L12.7763 13L13.6426 12.1311L1.54843 0L0.682128 0.868947ZM4.4543 4.65263L5.5116 5.71316C5.47749 5.85684 5.45703 6.00737 5.45703 6.15789C5.45703 7.29368 6.37108 8.21053 7.50341 8.21053C7.65348 8.21053 7.80355 8.19 7.94679 8.15579L9.00409 9.21632C8.54707 9.44211 8.04229 9.57895 7.50341 9.57895C5.62074 9.57895 4.09277 8.04632 4.09277 6.15789C4.09277 5.61737 4.2292 5.11105 4.4543 4.65263ZM7.39427 4.11895L9.54297 6.27421L9.55662 6.16474C9.55662 5.02895 8.64256 4.11211 7.51023 4.11211L7.39427 4.11895Z" fill="white"/>
</svg>
