<svg width="15" height="13" viewBox="0 0 15 13" fill="none" xmlns="http://www.w3.org/2000/svg">
<path d="M7.5 0C4.09091 0 1.17955 2.69533 0 6.5C1.17955 10.3047 4.09091 13 7.5 13C10.9091 13 13.8205 10.3047 15 6.5C13.8205 2.69533 10.9091 0 7.5 0ZM7.5 10.8333C5.61818 10.8333 4.09091 8.892 4.09091 6.5C4.09091 4.108 5.61818 2.16667 7.5 2.16667C9.38182 2.16667 10.9091 4.108 10.9091 6.5C10.9091 8.892 9.38182 10.8333 7.5 10.8333ZM7.5 3.9C6.36818 3.9 5.45455 5.06133 5.45455 6.5C5.45455 7.93867 6.36818 9.1 7.5 9.1C8.63182 9.1 9.54545 7.93867 9.54545 6.5C9.54545 5.06133 8.63182 3.9 7.5 3.9Z" fill="white"/>
</svg>
