<svg width="24" height="16" viewBox="0 0 24 16" fill="none" xmlns="http://www.w3.org/2000/svg">
<path d="M22.6495 1.67106H0.757873C0.338814 1.67106 0 1.29706 0 0.835531C0 0.373531 0.339239 0 0.757873 0H22.6495C23.0686 0 23.4074 0.373999 23.4074 0.835531C23.4074 1.29753 23.0686 1.67106 22.6495 1.67106Z" fill="#CBAA62"/>
<path d="M22.6495 8.46501H0.757873C0.338814 8.46501 0 8.09101 0 7.62948C0 7.16748 0.339239 6.79395 0.757873 6.79395H22.6495C23.0686 6.79395 23.4074 7.16795 23.4074 7.62948C23.4074 8.09101 23.0686 8.46501 22.6495 8.46501Z" fill="#CBAA62"/>
<path d="M22.6495 15.2599H0.757873C0.338814 15.2599 0 14.8859 0 14.4244C0 13.9624 0.339239 13.5889 0.757873 13.5889H22.6495C23.0686 13.5889 23.4074 13.9629 23.4074 14.4244C23.4074 14.8859 23.0686 15.2599 22.6495 15.2599Z" fill="#CBAA62"/>
</svg>
